<svg width="1000" height="600" xmlns="http://www.w3.org/2000/svg"><defs><linearGradient id="a" gradientTransform="rotate(90)"><stop offset="5%" stop-color="#c0502c"/><stop offset="95%" stop-color="#cf7b60"/></linearGradient><linearGradient id="b" gradientTransform="rotate(90)"><stop offset="5%" stop-color="#d55931"/><stop offset="95%" stop-color="#df8264"/></linearGradient><linearGradient id="c" gradientTransform="rotate(90)"><stop offset="5%" stop-color="#ea6236"/><stop offset="95%" stop-color="#ef8968"/></linearGradient><linearGradient id="d" gradientTransform="rotate(90)"><stop offset="5%" stop-color="#f16438"/><stop offset="95%" stop-color="#f48a69"/></linearGradient><linearGradient id="e" gradientTransform="rotate(90)"><stop offset="5%" stop-color="#ea6136"/><stop offset="95%" stop-color="#ef8868"/></linearGradient><linearGradient id="f" gradientTransform="rotate(90)"><stop offset="5%" stop-color="#e35e35"/><stop offset="95%" stop-color="#ea8667"/></linearGradient><linearGradient id="g" gradientTransform="rotate(90)"><stop offset="5%" stop-color="#dc5b33"/><stop offset="95%" stop-color="#e48466"/></linearGradient></defs><path fill="#ab4727" d="M0 0h1000v600H0z"/><path d="M0 75c63.015 4.191 126.03 8.382 177 11 50.97 2.618 89.898 3.663 141-5 51.102-8.663 114.378-27.034 169-25 54.622 2.034 100.59 24.473 159 31 58.41 6.527 129.264-2.858 199-10 69.736-7.142 138.353-12.04 164-12 25.647.04 8.323 5.02 31 10l-40 525H0Z" fill="url(#a)"/><path d="M0 150c54.476-9.73 108.952-19.46 168-14 59.048 5.46 122.669 26.11 176 29 53.331 2.89 96.373-11.98 154-18 57.627-6.02 129.838-3.191 183-5 53.162-1.809 87.274-8.256 144-8 56.726.256 136.064 7.216 169 11 32.936 3.784 19.468 4.392 46 5l-40 450H0Z" fill="url(#b)"/><path d="M0 225c42.641 3.896 85.283 7.793 145 6 59.717-1.793 136.51-9.274 192-9 55.49.274 89.678 8.303 144 5 54.322-3.303 128.777-17.937 188-21 59.223-3.063 103.214 5.445 164 10s138.367 5.159 169 6c30.633.841 14.316 1.92 38 3l-40 375H0Z" fill="url(#c)"/><path d="M0 300c55.226 2.51 110.452 5.018 168 8s117.417 6.436 176 1 115.88-19.763 167-26c51.12-6.237 96.063-4.383 153-2s125.868 5.295 186 6c60.132.705 111.466-.799 135 1 23.534 1.799 19.267 6.9 55 12l-40 300H0Z" fill="url(#d)"/><path d="M0 375c52.104-2.677 104.208-5.353 161-3 56.792 2.353 118.27 9.737 179 10 60.73.263 120.71-6.595 172-13 51.29-6.405 93.892-12.356 148-13 54.108-.644 119.721 4.019 181 9 61.279 4.981 118.222 10.28 144 12 25.778 1.72 20.389-.14 55-2l-40 225H0Z" fill="url(#e)"/><path d="M0 450c63.728-3.104 127.457-6.208 180-4 52.543 2.208 93.901 9.729 146 6 52.099-3.729 114.938-18.706 169-15 54.062 3.706 99.347 26.097 155 26 55.653-.097 121.676-22.68 185-24 63.324-1.32 123.95 18.623 151 24 27.05 5.377 20.525-3.811 54-13l-40 150H0Z" fill="url(#f)"/><path d="M0 525c45.083 4.33 90.165 8.66 152 3 61.835-5.66 140.422-21.313 197-21 56.578.313 91.147 16.592 141 19 49.853 2.408 114.992-9.056 168-13 53.008-3.944 93.887-.37 159 0s154.46-2.466 189-1c34.54 1.466 14.27 7.233 34 13l-40 75H0Z" fill="url(#g)"/></svg>