<svg width="1130" height="982" viewBox="0 0 1130 982" fill="none" xmlns="http://www.w3.org/2000/svg">
<g clip-path="url(#clip0_201_669)">
<path d="M0.142883 -193L1483.22 0.156692L1322.08 1237.43L-161 1044.27L0.142883 -193Z" fill="#D55931"/>
<path d="M-20 -38.3412C72.3305 -17.5271 164.661 3.28697 239.55 18.5308C314.439 33.7746 371.892 43.4487 450.007 35.4553C528.122 27.4619 626.899 1.80091 707.361 16.5459C787.823 31.2908 849.971 86.4417 934.844 111.183C1019.72 135.925 1127.32 130.258 1232.66 129C1338 127.743 1441.08 130.896 1479.11 135.933C1517.14 140.969 1490.1 147.892 1522.4 162.542L1322.08 1237.43L-161 1044.27L-20 -38.3412Z" fill="url(#paint0_linear_201_669)"/>
<path d="M-40.1428 116.318C43.2624 106.776 126.668 97.2335 212.774 119.898C298.88 142.563 387.689 197.434 466.007 213.695C544.324 229.956 612.153 207.606 699.235 206.323C786.317 205.04 892.651 224.822 971.98 231.36C1051.31 237.899 1103.63 231.193 1187.69 242.678C1271.75 254.163 1387.55 283.84 1435.38 298.005C1483.21 312.17 1463.07 310.822 1502.26 317.2L1322.08 1237.43L-161 1044.27L-40.1428 116.318Z" fill="url(#paint1_linear_201_669)"/>
<path d="M-60.2857 270.976C1.90782 287.247 64.1025 303.519 153.149 311.357C242.195 319.194 358.094 318.6 440.317 329.884C522.539 341.167 571.086 364.327 652.537 368.009C733.987 371.69 848.34 355.895 936.995 361.018C1025.65 366.141 1088.61 392.183 1177.53 413.317C1266.46 434.451 1381.36 450.682 1426.56 458.333C1471.77 465.984 1447.28 465.057 1482.11 471.859L1322.08 1237.43L-161 1044.27L-60.2857 270.976Z" fill="url(#paint2_linear_201_669)"/>
<path d="M-80.4285 425.635C0.801722 441.478 82.0325 457.317 166.58 474.582C251.127 491.847 338.989 510.534 427.332 510.64C515.675 510.746 604.499 492.269 681.989 489.282C759.479 486.295 825.635 498.799 909.437 514.711C993.239 530.623 1094.69 549.942 1183.68 563.011C1272.67 576.079 1349.2 582.893 1383.62 591.149C1418.04 599.405 1410.35 609.099 1461.97 626.518L1322.08 1237.43L-161 1044.27L-80.4285 425.635Z" fill="url(#paint3_linear_201_669)"/>
<path d="M-100.571 580.294C-22.5782 584.838 55.4147 589.384 139.01 605.206C222.604 621.028 311.798 648.129 401.794 660.402C491.791 672.675 582.588 670.118 660.375 666.817C738.162 663.517 802.942 659.474 883.362 668.597C963.781 677.72 1059.84 700.01 1149.38 722.117C1238.92 744.225 1321.95 766.151 1359.72 774.677C1397.49 783.203 1390 778.327 1441.83 781.177L1322.08 1237.43L-161 1044.27L-100.571 580.294Z" fill="url(#paint4_linear_201_669)"/>
<path d="M-120.714 734.953C-25.3671 740.861 69.9815 746.77 147.314 761.472C224.646 776.175 283.963 799.672 362.231 802.046C440.5 804.42 537.717 785.673 616.9 803.758C696.083 821.842 757.23 876.762 839.794 887.312C922.357 897.862 1026.34 864.046 1120.61 873.555C1214.88 883.065 1299.43 935.9 1338.11 952.213C1376.78 968.526 1369.57 948.319 1421.68 935.836L1322.08 1237.43L-161 1044.27L-120.714 734.953Z" fill="url(#paint5_linear_201_669)"/>
<path d="M-140.857 889.611C-75.1585 907.248 -9.46135 924.885 83.7648 925.158C176.991 925.43 297.745 908.331 381.571 919.905C465.396 931.479 512.293 971.725 585.582 986.32C658.871 1000.92 758.556 989.857 838.23 991.963C917.904 994.069 977.571 1009.34 1074.04 1022.68C1170.51 1036.02 1303.78 1047.42 1354.61 1057.12C1405.44 1066.81 1373.83 1074.79 1401.54 1090.49L1322.08 1237.43L-161 1044.27L-140.857 889.611Z" fill="url(#paint6_linear_201_669)"/>
</g>
<defs>
<linearGradient id="paint0_linear_201_669" x1="-82.678" y1="-203.787" x2="-361.992" y2="1940.81" gradientUnits="userSpaceOnUse">
<stop stop-color="#C0502C"/>
<stop offset="0.95" stop-color="#CF7B60"/>
</linearGradient>
<linearGradient id="paint1_linear_201_669" x1="-198.578" y1="-218.882" x2="-477.892" y2="1925.72" gradientUnits="userSpaceOnUse">
<stop offset="0.05" stop-color="#D55931"/>
<stop offset="0.95" stop-color="#DF8264"/>
</linearGradient>
<linearGradient id="paint2_linear_201_669" x1="-304.407" y1="-232.665" x2="-583.721" y2="1911.94" gradientUnits="userSpaceOnUse">
<stop offset="0.05" stop-color="#EA6236"/>
<stop offset="0.95" stop-color="#EF8968"/>
</linearGradient>
<linearGradient id="paint3_linear_201_669" x1="-413.29" y1="-246.846" x2="-692.604" y2="1897.76" gradientUnits="userSpaceOnUse">
<stop offset="0.05" stop-color="#F16438"/>
<stop offset="0.95" stop-color="#F48A69"/>
</linearGradient>
<linearGradient id="paint4_linear_201_669" x1="-527.743" y1="-261.752" x2="-807.058" y2="1882.85" gradientUnits="userSpaceOnUse">
<stop offset="0.05" stop-color="#EA6136"/>
<stop offset="0.95" stop-color="#EF8868"/>
</linearGradient>
<linearGradient id="paint5_linear_201_669" x1="-647.094" y1="-277.297" x2="-926.408" y2="1867.31" gradientUnits="userSpaceOnUse">
<stop offset="0.05" stop-color="#E35E35"/>
<stop offset="0.95" stop-color="#EA8667"/>
</linearGradient>
<linearGradient id="paint6_linear_201_669" x1="-751.77" y1="-290.929" x2="-1031.08" y2="1853.67" gradientUnits="userSpaceOnUse">
<stop offset="0.05" stop-color="#DC5B33"/>
<stop offset="0.95" stop-color="#E48466"/>
</linearGradient>
<clipPath id="clip0_201_669">
<rect width="1495.6" height="1247.72" fill="white" transform="translate(0.142883 -193) rotate(7.42047)"/>
</clipPath>
</defs>
</svg>
