<?xml version="1.0" standalone="no"?>
<!DOCTYPE svg PUBLIC "-//W3C//DTD SVG 20010904//EN"
 "http://www.w3.org/TR/2001/REC-SVG-20010904/DTD/svg10.dtd">
<svg version="1.0" xmlns="http://www.w3.org/2000/svg"
 width="627.000000pt" height="627.000000pt" viewBox="0 0 627.000000 627.000000"
 preserveAspectRatio="xMidYMid meet">
<metadata>
Created by potrace 1.14, written by Peter Selinger 2001-2017
</metadata>
<g transform="translate(0.000000,627.000000) scale(0.100000,-0.100000)"
fill="#000000" stroke="none">
<path d="M2927 6114 c-4 -4 -26 -8 -49 -10 -59 -3 -148 -13 -178 -19 -14 -3
-38 -7 -55 -10 -63 -9 -240 -49 -245 -54 -3 -3 -12 -7 -20 -7 -32 -4 -84 -15
-94 -22 -6 -3 -18 -8 -27 -9 -9 -1 -29 -8 -45 -14 -16 -7 -35 -11 -41 -10 -7
1 -13 -2 -13 -7 0 -5 -6 -9 -13 -9 -8 0 -45 -12 -83 -27 -205 -82 -408 -185
-546 -278 -31 -21 -62 -38 -67 -38 -6 0 -11 -5 -11 -10 0 -6 -8 -14 -17 -17
-21 -8 -87 -55 -91 -65 -2 -5 -8 -8 -13 -8 -9 0 -19 -8 -77 -60 -17 -16 -32
-27 -32 -25 0 6 -60 -48 -167 -151 -51 -49 -96 -88 -98 -85 -3 2 -5 -1 -5 -7
0 -6 -16 -26 -35 -43 -19 -18 -35 -38 -35 -46 0 -7 -7 -13 -15 -13 -8 0 -15
-4 -15 -9 0 -5 -6 -16 -13 -23 -6 -7 -30 -36 -52 -63 -22 -28 -44 -55 -50 -62
-5 -7 -16 -19 -23 -28 -7 -8 -10 -15 -7 -15 3 0 -3 -10 -15 -22 -11 -12 -39
-52 -62 -88 -24 -36 -47 -68 -53 -72 -6 -5 -6 -8 0 -8 6 0 1 -7 -9 -15 -11 -8
-17 -15 -13 -15 4 0 -8 -24 -27 -52 -27 -44 -158 -300 -162 -318 -1 -5 -18
-50 -31 -80 -3 -8 -7 -17 -8 -20 -6 -16 -18 -48 -26 -65 -20 -47 -82 -250 -95
-314 -3 -13 -11 -51 -19 -84 -8 -33 -12 -64 -9 -69 3 -4 1 -8 -3 -8 -5 0 -9
-8 -9 -17 -1 -10 -4 -43 -8 -73 -24 -176 -26 -201 -30 -412 -3 -104 -1 -190 4
-193 5 -3 5 -18 0 -34 -4 -16 -6 -32 -3 -34 2 -3 6 -30 9 -61 2 -31 6 -71 10
-88 3 -18 8 -49 10 -68 5 -53 13 -105 14 -105 1 0 3 -11 6 -25 25 -151 110
-442 160 -549 9 -18 17 -39 18 -45 5 -29 18 -56 26 -56 5 0 7 -7 4 -15 -4 -8
-1 -15 5 -15 6 0 11 -9 11 -20 0 -11 4 -20 9 -20 5 0 15 -17 22 -37 7 -21 22
-54 35 -74 13 -20 20 -40 17 -43 -4 -3 -1 -6 5 -6 7 0 12 -6 12 -13 0 -7 10
-24 23 -37 12 -14 22 -27 21 -30 -2 -14 10 -40 19 -40 6 0 8 -3 4 -6 -3 -3 3
-15 14 -27 10 -11 19 -27 19 -34 0 -7 3 -13 8 -13 4 0 16 -16 26 -35 11 -19
23 -35 28 -35 4 0 8 -5 8 -10 0 -11 78 -115 117 -157 12 -12 20 -23 17 -23 -3
0 1 -6 8 -14 7 -7 41 -45 76 -83 102 -114 141 -153 152 -153 6 0 8 -4 5 -10
-3 -5 -3 -10 2 -10 4 0 34 -25 66 -55 32 -30 61 -55 66 -55 4 0 17 -11 27 -25
10 -14 22 -25 26 -25 7 0 36 -21 63 -47 8 -7 19 -13 25 -13 6 0 8 -4 5 -10 -3
-5 -2 -10 4 -10 12 0 104 -61 109 -72 2 -5 8 -8 13 -8 6 0 19 -9 31 -20 12
-10 25 -17 30 -14 4 3 8 0 8 -5 0 -6 7 -11 15 -11 9 0 18 -7 21 -15 4 -8 11
-15 16 -15 5 0 22 -9 36 -19 15 -10 29 -18 32 -18 3 0 18 -8 34 -18 16 -11 36
-20 44 -21 8 -2 18 -7 21 -12 7 -11 229 -119 261 -127 3 0 16 -7 30 -15 14 -7
27 -13 30 -13 3 0 16 -4 30 -10 14 -6 27 -11 30 -12 3 -1 20 -6 38 -10 17 -4
32 -11 32 -16 0 -5 3 -8 8 -7 11 4 105 -24 119 -34 7 -6 16 -8 20 -5 4 3 19 0
33 -6 14 -5 36 -12 50 -14 14 -2 36 -8 50 -13 14 -5 39 -11 55 -14 50 -8 99
-17 115 -23 8 -3 33 -7 55 -9 63 -6 120 -13 120 -14 0 -2 75 -9 152 -14 39 -2
76 -7 82 -10 5 -4 12 -2 15 3 4 5 19 6 34 2 29 -7 142 -6 205 3 25 3 37 1 37
-7 0 -8 3 -8 8 -2 4 6 14 11 23 11 163 12 304 28 304 34 0 1 14 3 30 5 32 4
56 8 119 24 22 5 44 8 48 5 4 -3 8 -1 8 4 0 5 6 9 13 10 25 2 62 10 77 16 8 3
24 7 35 9 11 1 26 6 33 10 6 5 12 6 12 3 0 -3 15 1 34 9 18 8 36 11 40 8 3 -4
6 -1 6 5 0 7 9 12 20 12 10 0 34 6 52 14 49 21 72 29 81 28 4 -1 7 3 7 10 0 6
3 9 6 6 6 -6 46 11 202 83 45 21 85 38 89 38 3 0 9 4 13 11 4 6 13 12 21 13 8
2 25 10 39 20 13 9 30 17 38 17 7 0 10 5 6 12 -5 8 -2 9 9 5 10 -3 17 -2 17 3
0 6 6 10 14 10 7 0 19 7 26 15 7 8 16 13 20 10 4 -3 10 2 14 10 3 8 12 15 21
15 8 0 15 5 15 10 0 6 6 10 13 10 7 0 23 9 35 20 12 11 25 20 30 20 5 0 17 9
27 20 10 11 23 20 29 20 6 0 27 15 47 33 20 17 49 41 63 51 15 11 37 28 49 39
12 10 41 35 65 55 65 56 189 180 262 262 36 40 71 78 78 86 6 7 12 17 12 22 0
6 4 12 8 14 5 1 28 30 53 63 24 33 47 62 52 63 4 2 7 9 7 15 1 7 14 27 30 46
16 19 27 38 25 42 -3 4 2 9 10 13 8 3 15 12 15 21 0 8 4 15 9 15 5 0 15 15 22
32 7 18 20 38 29 45 8 7 11 13 7 13 -5 0 -1 7 7 16 9 8 14 20 11 25 -4 5 -2 9
2 9 12 0 44 56 36 64 -3 3 -1 6 6 6 7 0 9 5 6 10 -3 6 -2 10 3 10 7 0 81 144
87 170 0 3 8 21 17 40 20 43 51 127 49 134 0 3 8 22 19 42 11 19 15 32 9 29
-6 -4 -3 4 6 19 10 14 14 26 10 26 -4 0 -2 7 5 15 6 8 9 19 5 25 -3 5 -1 10 4
10 6 0 10 3 9 8 -2 8 20 108 29 132 4 8 5 19 4 24 -1 4 3 14 9 21 6 7 8 20 4
29 -3 9 -2 16 3 16 8 0 11 18 16 92 1 16 5 28 9 28 4 0 8 10 7 23 0 12 2 40 6
62 3 22 7 58 10 80 2 22 4 40 5 40 3 0 10 115 14 238 3 75 8 142 11 147 3 6 2
10 -3 10 -5 0 -8 12 -8 28 1 15 -3 33 -8 40 -5 7 -4 12 2 12 6 0 9 8 7 18 -2
9 -4 17 -5 17 -2 0 -5 29 -14 130 -2 28 -5 50 -6 50 -1 0 -3 16 -5 35 -3 34
-12 93 -20 135 -9 50 -16 82 -21 105 -3 14 -8 36 -10 50 -3 14 -7 32 -11 40
-3 8 -7 22 -8 30 -2 8 -6 26 -10 40 -4 14 -7 31 -7 38 -1 6 -5 12 -10 12 -5 0
-6 5 -3 10 4 6 1 17 -5 25 -7 8 -9 15 -5 15 4 0 2 7 -5 15 -7 8 -9 15 -4 15 4
0 3 5 -4 12 -7 7 -12 22 -12 35 0 13 -5 23 -11 23 -5 0 -8 4 -5 8 3 5 -1 20
-9 35 -8 15 -12 27 -9 27 2 0 -2 10 -10 23 -8 12 -15 25 -16 29 -3 24 -23 68
-32 68 -5 0 -7 4 -4 8 3 5 -4 25 -14 45 -11 21 -17 37 -13 37 5 0 4 4 -2 8 -5
4 -26 39 -45 77 -19 39 -38 72 -41 75 -3 3 -8 13 -12 22 -3 9 -33 60 -66 113
-34 53 -61 98 -61 101 0 3 -11 17 -25 32 -14 15 -25 31 -25 36 0 5 -11 19 -24
31 -14 13 -22 26 -19 29 4 3 1 6 -6 6 -7 0 -9 5 -6 10 3 6 -1 10 -10 10 -9 0
-14 4 -11 9 3 4 -6 19 -19 31 -14 13 -25 30 -25 37 0 8 -4 11 -10 8 -5 -3 -10
-2 -10 3 0 5 -16 27 -35 48 -19 21 -35 42 -35 47 0 4 -4 5 -10 2 -5 -3 -10 -2
-10 3 0 9 -156 172 -165 172 -2 0 -22 18 -44 40 -22 22 -43 40 -45 40 -3 0
-20 13 -38 30 -63 57 -106 90 -116 90 -6 0 -12 3 -14 8 -5 12 -108 84 -108 76
0 -5 -7 2 -16 14 -8 12 -19 22 -24 22 -11 0 -103 60 -112 74 -4 6 -8 7 -8 3 0
-9 -84 37 -112 61 -10 8 -18 12 -18 8 0 -3 -18 5 -40 19 -22 14 -40 22 -40 18
0 -5 -4 -3 -8 2 -6 9 -105 58 -121 61 -3 0 -23 8 -43 17 -82 37 -114 49 -138
53 -13 3 -29 9 -35 14 -7 5 -22 12 -36 14 -13 3 -24 5 -24 6 0 1 -11 3 -24 6
-14 2 -30 9 -36 14 -7 6 -25 12 -41 15 -77 13 -100 18 -109 25 -5 5 -26 9 -45
11 -19 2 -41 7 -47 12 -7 5 -19 7 -28 4 -8 -4 -17 -2 -20 3 -3 5 -12 7 -20 3
-8 -3 -15 -1 -15 3 0 5 -10 10 -22 10 -13 1 -43 4 -68 8 -77 11 -163 19 -202
20 -21 1 -38 5 -38 9 0 4 -10 3 -21 -4 -14 -7 -24 -7 -28 -1 -7 11 -380 11
-398 -1 -6 -4 -13 -2 -15 4 -2 5 -7 7 -11 3z"/>
</g>
</svg>
